<?xml version="1.0" encoding="utf-8"?>
<!-- Generator: Adobe Illustrator 25.4.1, SVG Export Plug-In . SVG Version: 6.00 Build 0)  -->
<svg version="1.1" id="Layer_1" xmlns="http://www.w3.org/2000/svg" xmlns:xlink="http://www.w3.org/1999/xlink" x="0px" y="0px"
	 viewBox="0 0 175 163.3" style="enable-background:new 0 0 175 163.3;" xml:space="preserve">
<style>
  @media (prefers-color-scheme: dark) {
    .logosymbol {
      fill: #ffffff;
    }
  }
</style>
<path class="logosymbol" d="M164,141.2c-1.3,1.1-3.3,2.4-5.8,3.5c0,0,0,0,0,0c0,0,0,0,0,0c-2.2,1-4.8,1.8-7.7,2.1c-2.9,0.3-5.8,0.2-8.6-0.4l-0.3-0.1
	c-2.2-0.5-4.4-1.2-6.4-2.2c-7.6-3.8-13.2-10-13.2-10l-13.8-16.4l0,0c4.9-6,13.4-17,17.4-22.3c4.1-5.4,8.2-10.4,12.5-15.1
	c1.8-1.8,5.8-5.1,10.9-5.1l0,0c3.4-0.1,6.7-0.5,9.8-1.4C168.3,71.1,175,60.3,175,46c-3.2,6.3-7.9,8.9-12.6,10.6
	c-7.3,2.6-14.7,1.4-22.2,0.5c-8-0.9-16.9-2.4-24.5,0.3c-7.6,2.7-12.2,10.5-13.1,21.4c5.7-8.4,12.6-7.3,20.1-6.5
	c3.5,0.4,6.9,1,10.4,1.5c0.4,0.1,0.8,0.1,1.1,0.2l-18.8,25.7c0,0,0,0,0,0c-1.8,2.7-7.5,10.3-10.4,14.3l-43-50.4
	c2.5-1.1,6.4-3.5,8.5-5c2.7-1.9,5.5-4.3,8.1-7.2c2.7-2.9,5-6.3,7.1-10.1c2-3.9,3.1-8.3,3.1-13c0-4.8-1-9-2.9-12.6
	c-1.9-3.6-4.4-6.6-7.4-8.9c-3-2.3-6.4-4.1-10.2-5.3c-8.1-2.5-16.7-2.4-25,0.7c-4.4,1.6-8.4,3.9-12,6.8c-3.6,2.9-6.5,6.4-8.7,10.5
	c-2.3,4.1-3.4,8.7-3.4,13.6c0,4.9,0.6,9.2,1.9,12.7c0,0,0,0.1,0,0.1c1.7,4.8,4.4,9.1,7.7,13l11.7,14c-4.4,2.3-8.8,4.9-13.3,7.8
	c-5,3.3-9.6,7.1-13.7,11.3c-4.1,4.2-7.5,9-10,14.2C1.3,111.6,0,117.4,0,123.6c0,5.3,1,10.5,2.9,15.4c2,4.9,4.8,9.2,8.4,12.8
	c3.6,3.6,8.2,6.5,13.5,8.5c5.3,2,11.4,3,18,3c5.9,0,11.6-1,16.9-3c5.3-2,10.2-4.6,14.6-7.6c4.4-3.1,8.3-6.4,11.6-9.9
	c2.7-2.9,4.9-5.5,6.6-7.9l6.8,8.1c0,0,15.8,20.3,36.6,20.3l0,0c0,0,0,0,0,0c0,0,0,0,0,0s0.7,0,2,0c2.7-0.1,5.6-0.5,8.7-1.2
	c6.1-1.4,13.4-4.6,18.5-11c9.8-12.2,9.8-23,9.8-23c-1,1.7-2.4,4.4-4.4,6.8C169,136.8,166.1,139.4,164,141.2z M36.6,23.1
	C36.6,5,53.1,6.2,53.1,6.2c2.7,0,5.2,0.8,7.5,2.3c2.3,1.5,4.4,3.6,6,6c1.7,2.5,3,5.3,3.9,8.5c0.9,3.2,1.4,6.5,1.4,9.8
	c0,6-0.8,11.1-2.4,15.3c-1.5,3.9-4.1,8.6-9.3,13.4L46,45C40.1,37.9,36.6,31.9,36.6,23.1z M86.1,134.3c-1.2,1-2.3,2-3.5,2.8
	c-2.7,2.1-5.5,3.8-8.3,5.2c-2.9,1.4-6,2.4-9.4,3.1c-3.4,0.7-7.3,1.1-11.6,1.1c-4.3,0-8.3-0.8-11.9-2.5c-3.6-1.6-6.8-3.9-9.4-6.8
	c-2.6-2.9-4.7-6.3-6.1-10.2c-1.4-3.8-2.1-8-2.1-12.2c0-4.3,0.7-8.4,2-12.3c1.3-3.9,3.1-7.6,5.2-10.9c2.1-3.3,4.5-6.4,7-9.1
	c1-1.1,2-2.1,3-3.1c1-0.9,1.9-1.8,2.8-2.6c0,0,0,0,0,0L82,122.3l7.6,9C88.4,132.3,87.2,133.4,86.1,134.3z"/>
</svg>