<?xml version="1.0" encoding="UTF-8"?> <svg xmlns="http://www.w3.org/2000/svg" xmlns:xlink="http://www.w3.org/1999/xlink" width="50" height="50" viewBox="0 0 50 50"><defs><clipPath id="clip-cream_2"><rect width="50" height="50"></rect></clipPath></defs><g id="cream_2" clip-path="url(#clip-cream_2)"><path id="Path_270" data-name="Path 270" d="M184.808,472.069a4.551,4.551,0,0,1-4.516-3.841l-2.619-15.7h-2.139a1.328,1.328,0,0,1,0-2.656h1.718l-.259-.45a12.732,12.732,0,0,1,7.955-18.711l.122-.03.064-.108a15.957,15.957,0,0,1,25.873-2.242l.211.246,4.664-4.649a4.575,4.575,0,0,1,6.3,6.636l-3.468,3.478.2.212a12.78,12.78,0,0,1,1.841,15.168l-.259.45h1.537l.186.011a1.329,1.329,0,0,1,0,2.657h-2.14l-2.617,15.7a4.554,4.554,0,0,1-4.51,3.831Zm-1.9-4.268a1.915,1.915,0,0,0,1.9,1.611h28.142a1.915,1.915,0,0,0,1.9-1.612l1.459-8.758H181.446ZM181,456.385h35.747l.643-3.858H180.359ZM188.039,433a10.12,10.12,0,0,0-10.1,10.057,9.966,9.966,0,0,0,2.581,6.717l.089.1h36.816l-.079-.237a10.1,10.1,0,0,0-.322-13.5l-.212-.223-5.394,5.416.026.152a9.294,9.294,0,0,1,.134,1.572,1.329,1.329,0,1,1-2.658,0,6.4,6.4,0,0,0-.24-1.777,6.723,6.723,0,0,0-3.463-4.281,6.649,6.649,0,0,0-3.065-.75,1.329,1.329,0,1,1-.021-2.657,9.378,9.378,0,0,1,3.234.575l.18.066,3.765-3.769-.173-.21a13.3,13.3,0,0,0-20.243-.368l-.4.448.6.049a12.688,12.688,0,0,1,3.865.952,1.328,1.328,0,1,1-1.035,2.447,10.06,10.06,0,0,0-3.842-.777Zm30.92-7.6a1.9,1.9,0,0,0-1.357.565l-9.655,9.618.253.211a9.374,9.374,0,0,1,2.071,2.431l.2.333,9.846-9.878a1.932,1.932,0,0,0,0-2.714A1.908,1.908,0,0,0,218.959,425.4Z" transform="translate(-174.206 -422.667)" fill="#db9"></path></g></svg> 