<?xml version="1.0" encoding="UTF-8"?> <svg xmlns="http://www.w3.org/2000/svg" xmlns:xlink="http://www.w3.org/1999/xlink" width="50" height="50" viewBox="0 0 50 50"><defs><clipPath id="clip-cream_1"><rect width="50" height="50"></rect></clipPath></defs><g id="cream_1" clip-path="url(#clip-cream_1)"><g id="cream" transform="translate(0 -27.426)"><path id="Path_48" data-name="Path 48" d="M43.825,49.949a7.3,7.3,0,0,0-5.953-7.165,7.3,7.3,0,0,0-7.165-5.953,4.378,4.378,0,0,1-4.373-4.373V31H24.876a7.3,7.3,0,0,0-7.165,5.953,7.309,7.309,0,0,0-5.83,5.83,7.3,7.3,0,0,0-5.953,7.165v1.458H0v7.788A21.382,21.382,0,0,0,6.684,74.728H43.068a21.486,21.486,0,0,0,6.684-15.533V51.406H43.825Zm-34.982,0a4.378,4.378,0,0,1,4.373-4.373H29.249V42.661H14.924a4.38,4.38,0,0,1,4.122-2.915H20.5V38.288a4.381,4.381,0,0,1,3.1-4.185,7.3,7.3,0,0,0,7.1,5.642,4.378,4.378,0,0,1,4.373,4.373v1.458h1.458a4.378,4.378,0,0,1,4.373,4.373v1.458H8.843Zm37.995,9.246a18.318,18.318,0,0,1-4.99,12.618H7.9a18.318,18.318,0,0,1-4.99-12.618V54.321H46.837Z" transform="translate(0 0)" fill="#db9"></path></g></g></svg> 