<?xml version="1.0" encoding="UTF-8"?> <svg xmlns="http://www.w3.org/2000/svg" xmlns:xlink="http://www.w3.org/1999/xlink" width="50" height="50" viewBox="0 0 50 50"><defs><clipPath id="clip-milk_1"><rect width="50" height="50"></rect></clipPath></defs><g id="milk_1" clip-path="url(#clip-milk_1)"><path id="Path_278" data-name="Path 278" d="M711.409,873.825a12.079,12.079,0,0,1-1.282-24.077l.389-.045.18-.348a15.176,15.176,0,0,1,10.592-7.942A15.237,15.237,0,0,1,739.2,853.43l.109.554.563.039a9.913,9.913,0,0,1-.686,19.8Zm0-21.361a9.293,9.293,0,0,0-9.28,9.122,9.456,9.456,0,0,0,9.491,9.441H739a7.262,7.262,0,0,0,7.316-6.87,7.153,7.153,0,0,0-7.141-7.421h-2.466v-.331a12.513,12.513,0,0,0-5.041-10.034,12.364,12.364,0,0,0-7.414-2.452,12.524,12.524,0,0,0-10.021,5.041l-.641.864,1.037.286a12.1,12.1,0,0,1,8.608,9.2,1.405,1.405,0,0,1-1.367,1.7h0a1.4,1.4,0,0,1-1.369-1.123A9.3,9.3,0,0,0,711.409,852.464Z" transform="translate(-699.1 -832.122)" fill="#db9"></path></g></svg> 