<?xml version="1.0" encoding="utf-8"?>
<!-- Generator: Adobe Illustrator 25.4.1, SVG Export Plug-In . SVG Version: 6.00 Build 0)  -->
<svg version="1.1" id="Layer_1" xmlns="http://www.w3.org/2000/svg" xmlns:xlink="http://www.w3.org/1999/xlink" x="0px" y="0px"
	 viewBox="0 0 334.4 3" style="enable-background:new 0 0 334.4 3;" xml:space="preserve">
<style type="text/css">
	.st0{fill:none;stroke:#000000;stroke-miterlimit:10;}
</style>
<path class="st0" d="M0,1.5h33.7c2.5,0,4.9,0.2,7.3,0.6c1.3,0.2,3,0.4,4.6,0.4c7.6,0,7.6-2,15.2-2s7.6,2,15.2,2c7.6,0,7.6-2,15.2-2
	c7.6,0,7.6,2,15.2,2s7.6-2,15.2-2c7.6,0,7.6,2,15.2,2c7.6,0,7.6-2,15.2-2s7.6,2,15.2,2s7.6-2,15.2-2s7.6,2,15.2,2s7.6-2,15.2-2
	s7.6,2,15.2,2s7.6-2,15.2-2s7.6,2,15.2,2s7.6-2,15.2-2s7.6,2,15.2,2c1.6,0,3.3-0.2,4.6-0.4c2.4-0.4,4.9-0.6,7.3-0.6h33.7"/>
</svg>
