<?xml version="1.0" encoding="utf-8"?>
<!-- Generator: Adobe Illustrator 25.4.1, SVG Export Plug-In . SVG Version: 6.00 Build 0)  -->
<svg version="1.1" id="Layer_1" xmlns="http://www.w3.org/2000/svg" xmlns:xlink="http://www.w3.org/1999/xlink" x="0px" y="0px"
	 viewBox="0 0 3 334.4" style="enable-background:new 0 0 3 334.4;" xml:space="preserve">
<style type="text/css">
	.st0{fill:none;stroke:#000000;stroke-miterlimit:10;}
</style>
<path class="st0" d="M1.5,334.4v-33.7c0-2.5,0.2-4.9,0.6-7.3c0.2-1.3,0.4-3,0.4-4.6c0-7.6-2-7.6-2-15.2s2-7.6,2-15.2
	c0-7.6-2-7.6-2-15.2c0-7.6,2-7.6,2-15.2s-2-7.6-2-15.2c0-7.6,2-7.6,2-15.2c0-7.6-2-7.6-2-15.2s2-7.6,2-15.2s-2-7.6-2-15.2
	s2-7.6,2-15.2s-2-7.6-2-15.2s2-7.6,2-15.2s-2-7.6-2-15.2s2-7.6,2-15.2s-2-7.6-2-15.2s2-7.6,2-15.2c0-1.6-0.2-3.3-0.4-4.6
	c-0.4-2.4-0.6-4.9-0.6-7.3V0"/>
</svg>
